<svg xmlns="http://www.w3.org/2000/svg" viewBox="0 0 120 120" width="120" height="120" fill="none">
  <defs>
    <linearGradient id="fav_dGrad" x1="0%" y1="100%" x2="100%" y2="0%">
      <stop offset="0%" stop-color="#0284c7" />
      <stop offset="45%" stop-color="#2563eb" />
      <stop offset="80%" stop-color="#06b6d4" />
      <stop offset="100%" stop-color="#10b981" />
    </linearGradient>
    <linearGradient id="fav_cyanEmerald" x1="0%" y1="0%" x2="100%" y2="100%">
      <stop offset="0%" stop-color="#06b6d4" />
      <stop offset="100%" stop-color="#10b981" />
    </linearGradient>
    <linearGradient id="fav_sheetFold" x1="0%" y1="0%" x2="100%" y2="100%">
      <stop offset="0%" stop-color="#34d399" />
      <stop offset="100%" stop-color="#059669" />
    </linearGradient>
  </defs>

  <!-- Monogram D -->
  <path d="M 16 10 C 16 6 20 2 24 2 L 62 2 C 92 2 114 22 114 60 C 114 98 92 118 62 118 L 24 118 C 20 118 16 114 16 110 Z" fill="url(#fav_dGrad)" />

  <!-- Sheet -->
  <g transform="translate(24, 16)">
    <path d="M 4 4 C 4 1.8 5.8 0 8 0 L 38 0 L 52 14 L 52 74 C 52 76.2 50.2 78 48 78 L 8 78 C 5.8 78 4 76.2 4 74 Z" fill="#ffffff" />
    <path d="M 38 0 L 38 14 L 52 14 Z" fill="url(#fav_sheetFold)" />
    <rect x="10" y="24" width="12" height="8" rx="2" fill="#10b981" />
    <rect x="10" y="36" width="12" height="8" rx="2" fill="#10b981" />
    <rect x="10" y="48" width="12" height="8" rx="2" fill="#10b981" />
    <rect x="10" y="60" width="12" height="8" rx="2" fill="#10b981" />
    <rect x="26" y="24" width="18" height="8" rx="2" fill="#0f172a" fill-opacity="0.15" />
    <rect x="26" y="36" width="14" height="8" rx="2" fill="#0f172a" fill-opacity="0.15" />
    <rect x="26" y="48" width="8" height="8" rx="2" fill="#0f172a" fill-opacity="0.15" />
  </g>

  <!-- Lens -->
  <g transform="translate(52, 46)">
    <line x1="30" y1="30" x2="52" y2="52" stroke="url(#fav_cyanEmerald)" stroke-width="9" stroke-linecap="round" />
    <circle cx="20" cy="20" r="19" fill="#0b1329" stroke="#ffffff" stroke-width="4.5" />
    <rect x="11" y="21" width="4" height="9" rx="1.5" fill="#34d399" />
    <rect x="18" y="14" width="4" height="16" rx="1.5" fill="#10b981" />
    <rect x="25" y="8" width="4" height="22" rx="1.5" fill="#059669" />
  </g>
</svg>
